<svg width="716" height="540" viewBox="0 0 716 540" fill="none" xmlns="http://www.w3.org/2000/svg">
<path d="M91.7445 12.7111V72.5444V96.4778V439.522C91.7445 447.5 95.7334 451.489 103.711 451.489C187.478 451.489 255.289 467.444 315.122 499.356C327.089 503.344 335.067 511.322 347.033 519.3V499.356V487.389V88.5V60.5778C275.233 16.7 199.445 0.744446 103.711 0.744446C95.7334 0.744446 91.7445 4.73333 91.7445 12.7111Z" fill="#1E2F97"/>
<path d="M626.256 439.522V96.4778V72.5444V12.7111C626.256 4.73333 622.267 0.744446 614.289 0.744446C518.556 0.744446 438.778 20.6889 370.967 64.5667V92.4889V491.378V503.344V523.289C382.933 515.311 390.911 511.322 402.878 503.344C462.711 471.433 530.522 455.478 614.289 455.478C622.267 451.489 626.256 443.511 626.256 439.522Z" fill="#1E2F97"/>
<path d="M91.7445 487.389C71.8 487.389 51.8556 471.433 51.8556 447.5V88.5V64.5667H11.9667C3.98889 64.5667 0 68.5555 0 76.5333V527.278C0 535.256 3.98889 539.244 11.9667 539.244H307.144C291.189 527.278 271.244 519.3 251.3 515.311C203.433 495.367 151.578 487.389 91.7445 487.389Z" fill="#1E2F97"/>
<path d="M706.033 64.5667H666.144V88.5V447.5C666.144 467.444 650.189 487.389 626.256 487.389C566.422 487.389 510.578 495.367 462.711 511.322C442.767 519.3 426.811 527.278 406.867 535.256H702.044C710.022 535.256 714.011 531.267 714.011 523.289V76.5333C718 68.5555 714.011 64.5667 706.033 64.5667Z" fill="#1E2F97"/>
</svg>
