<svg width="653" height="598" viewBox="0 0 653 598" fill="none" xmlns="http://www.w3.org/2000/svg">
<path d="M364.533 378.765L563.627 578.84C564.518 579.736 565.593 580.447 566.852 580.971C569.367 582.018 571.886 582.024 574.408 580.989C575.669 580.472 576.747 579.767 577.643 578.875L635.592 521.213C636.502 520.308 637.219 519.212 637.744 517.928C638.793 515.359 638.767 512.802 637.663 510.255C637.112 508.982 636.372 507.903 635.443 507.017L431.454 312.414C462.386 281.789 493.327 251.173 524.181 220.471C525.847 218.814 527.84 217.447 529.989 216.473C532.857 215.174 536.006 214.577 539.153 214.369C543.09 214.108 547.023 214.456 550.924 214.906C564.217 216.444 578.045 214.976 590.838 210.616C603.632 206.256 615.39 199.002 625.032 189.583C634.674 180.165 642.202 168.581 646.862 155.894C651.522 143.207 653.313 129.417 652.089 116.091C651.92 114.254 651.208 112.428 650.066 110.943C648.925 109.459 647.354 108.318 645.601 107.681C643.847 107.045 641.91 106.914 640.082 107.32C638.254 107.727 636.535 108.672 635.228 109.972L578.597 166.324C577.7 167.216 576.622 167.921 575.361 168.438C572.84 169.474 570.321 169.467 567.805 168.42C566.547 167.896 565.472 167.186 564.58 166.29L519.39 120.875C518.498 119.979 517.793 118.9 517.276 117.64C516.24 115.118 516.247 112.6 517.294 110.083C517.818 108.825 518.529 107.75 519.425 106.858L575.934 50.6279C577.242 49.3264 578.197 47.6086 578.612 45.7799C579.026 43.9511 578.902 42.0103 578.271 40.2518C577.639 38.4943 576.501 36.9179 575.016 35.7704C573.532 34.624 571.704 33.9066 569.866 33.7345C556.567 32.4909 542.8 34.2506 530.126 38.8711C517.452 43.4905 505.869 50.9703 496.435 60.5649C487.003 70.158 479.72 81.8663 475.315 94.6172C470.911 107.367 469.383 121.162 470.852 134.438C471.278 138.286 471.601 142.167 471.325 146.048C471.105 149.149 470.5 152.251 469.204 155.075C468.235 157.189 466.877 159.148 465.233 160.782C433.79 192.07 402.346 223.359 370.904 254.647L230.659 120.855L168.991 182.261L305.642 319.584C275.098 349.977 244.553 380.372 214.008 410.766C212.365 412.401 210.4 413.749 208.281 414.708C205.452 415.989 202.347 416.579 199.244 416.784C195.363 417.041 191.482 416.698 187.637 416.254C174.369 414.72 160.567 416.178 147.794 420.519C135.021 424.861 123.277 432.086 113.637 441.471C103.997 450.857 96.4593 462.402 91.7766 475.054C87.095 487.705 85.2662 501.463 86.4443 514.768C86.6073 516.607 87.3157 518.439 88.4553 519.928C89.5937 521.418 91.1655 522.565 92.9207 523.205C94.6759 523.845 96.6156 523.979 98.4466 523.573C100.278 523.168 101.999 522.222 103.308 520.919L159.817 464.689C160.713 463.797 161.792 463.092 163.052 462.575C165.574 461.54 168.093 461.546 170.608 462.593C171.867 463.117 172.942 463.828 173.834 464.724L219.024 510.138C219.916 511.035 220.621 512.113 221.138 513.374C222.173 515.895 222.167 518.414 221.12 520.93C220.596 522.188 219.885 523.263 218.99 524.155L162.358 580.507C161.05 581.807 160.098 583.522 159.681 585.347C159.266 587.173 159.388 589.111 160.015 590.867C160.643 592.625 161.777 594.201 163.256 595.35C164.734 596.498 166.558 597.219 168.393 597.397C181.712 598.687 195.512 596.965 208.221 592.368C220.93 587.77 232.552 580.3 242.017 570.704C251.483 561.109 258.796 549.387 263.219 536.615C267.642 523.844 269.177 510.023 267.706 496.723C267.277 492.843 266.952 488.927 267.223 485.014C267.44 481.885 268.039 478.758 269.329 475.902C270.296 473.765 271.65 471.78 273.294 470.118C303.569 439.531 334.012 409.111 364.533 378.769L364.533 378.765ZM3.78668 189.283C2.85302 190.16 2.10497 191.229 1.54252 192.493C0.418784 195.021 0.365663 197.571 1.38188 200.143C1.88993 201.43 2.59276 202.531 3.48897 203.445L72.3082 273.699C73.1693 274.577 74.2048 275.282 75.4145 275.813C77.8351 276.875 80.2863 276.954 82.7691 276.051C84.0106 275.6 85.0901 274.963 86.0057 274.142L118.987 244.564C119.5 244.105 119.962 243.591 120.377 243.022C121.206 241.884 121.767 240.627 122.061 239.251C122.208 238.563 122.28 237.875 122.28 237.186V211.335C122.28 210.689 122.345 210.043 122.474 209.396C122.732 208.104 123.227 206.911 123.961 205.817C124.328 205.269 124.74 204.768 125.199 204.312L281.7 48.4612C282.156 48.0086 282.656 47.6 283.202 47.2368C284.293 46.5103 285.481 46.0203 286.765 45.7645C287.408 45.6378 288.051 45.5733 288.694 45.5733H339.463C341.416 45.5733 343.419 44.9611 345.061 43.8408C346.703 42.7215 347.985 41.0942 348.701 39.2484C349.419 37.4028 349.569 35.3375 349.112 33.4024C348.655 31.4684 347.59 29.6646 346.148 28.3462L318.634 3.19949C318.186 2.78872 317.698 2.42093 317.173 2.09496C316.121 1.44205 314.988 1.00301 313.772 0.77432C313.163 0.661254 312.556 0.604614 311.948 0.604614H237.595C236.957 0.604614 236.318 0.666479 235.679 0.792452C234.402 1.04483 233.221 1.5292 232.135 2.24664C231.591 2.60536 231.092 3.00824 230.637 3.45635L75.3521 156.523C74.8972 156.972 74.3982 157.375 73.8549 157.734C72.7685 158.451 71.5871 158.936 70.3094 159.187C69.6713 159.314 69.033 159.376 68.3948 159.376H39.5638C38.9449 159.376 38.3259 159.435 37.7068 159.554C36.47 159.789 35.319 160.244 34.2553 160.919C33.7234 161.257 33.2322 161.637 32.7807 162.06L3.77377 189.284L3.78668 189.283ZM90.9333 103.789C90.0416 102.893 89.3366 101.815 88.8194 100.554C87.784 98.0327 87.7907 95.5147 88.8386 92.9979C89.3614 91.7394 90.0721 90.6655 90.9683 89.7727L136.563 44.4031C137.446 43.525 138.504 42.8279 139.738 42.3118C142.208 41.2786 144.687 41.2526 147.178 42.234C148.423 42.724 149.496 43.3984 150.396 44.2574L159.069 52.532L98.9243 111.819L90.9333 103.789Z" fill="#1E2F97"/>
</svg>
