<?xml version="1.0" encoding="utf-8"?>
<!-- Generator: Adobe Illustrator 27.3.1, SVG Export Plug-In . SVG Version: 6.00 Build 0)  -->
<svg version="1.1" id="katman_1" xmlns="http://www.w3.org/2000/svg" xmlns:xlink="http://www.w3.org/1999/xlink" x="0px" y="0px"
	 viewBox="0 0 2000 2000" style="enable-background:new 0 0 2000 2000;" xml:space="preserve">
<style type="text/css">
	.st0{fill:#008CFF;}
</style>
<g>
	<path d="M233.64,1106.67c-71.12,0-106.68-35.55-106.68-106.67c0-71.11,35.56-106.67,106.68-106.67h162.82v72.99H233.64
		c-22.46,0-33.69,11.23-33.69,33.69s11.23,33.69,33.69,33.69h84.22c71.11,0,106.68,35.56,106.68,106.67
		c0,71.12-35.56,106.68-106.68,106.68H149.99v-72.99h167.87c22.46,0,33.69-11.23,33.69-33.69c0-22.46-11.23-33.69-33.69-33.69
		H233.64z"/>
	<path d="M497.51,966.31v-72.99H688.4c71.11,0,106.68,35.56,106.68,106.67v140.36c0,71.12-35.57,106.68-106.68,106.68H576.11
		c-71.12,0-106.67-35.56-106.67-106.68v-1.12c0-70.36,35.56-105.55,106.67-105.55h123.52v72.99H576.11
		c-22.46,0-33.69,10.86-33.69,32.56v1.12c0,22.46,11.23,33.69,33.69,33.69H688.4c22.46,0,33.69-11.23,33.69-33.69V1000
		c0-22.46-11.23-33.69-33.69-33.69H497.51z"/>
	<path d="M924.21,1247.04h-72.99V1000c0-71.11,35.56-106.67,106.67-106.67h50.53v72.99H957.9c-22.46,0-33.69,11.23-33.69,33.69
		V1247.04z"/>
	<path d="M1305.98,752.96h72.99v387.4c0,71.12-35.56,106.68-106.67,106.68h-112.29c-71.12,0-106.67-35.56-106.67-106.68V1000
		c0-71.11,35.56-106.67,106.67-106.67h123.52v72.99h-123.52c-22.46,0-33.69,11.23-33.69,33.69v140.36
		c0,22.46,11.23,33.69,33.69,33.69h112.29c22.46,0,33.69-11.23,33.69-33.69V752.96z"/>
	<path d="M1435.11,752.96h89.83v90.95h-89.83V752.96z M1444.09,893.33h72.99v353.71h-72.99V893.33z"/>
	<path d="M1682.14,1106.67c-71.12,0-106.67-35.55-106.67-106.67c0-71.11,35.55-106.67,106.67-106.67h162.82v72.99h-162.82
		c-22.46,0-33.69,11.23-33.69,33.69s11.23,33.69,33.69,33.69h84.22c71.11,0,106.67,35.56,106.67,106.67
		c0,71.12-35.56,106.68-106.67,106.68h-167.87v-72.99h167.87c22.46,0,33.69-11.23,33.69-33.69c0-22.46-11.23-33.69-33.69-33.69
		H1682.14z"/>
</g>
</svg>
