<?xml version="1.0" encoding="utf-8"?>
<!-- Generator: Adobe Illustrator 27.4.0, SVG Export Plug-In . SVG Version: 6.00 Build 0)  -->
<svg version="1.1" id="Layer_1" xmlns="http://www.w3.org/2000/svg" xmlns:xlink="http://www.w3.org/1999/xlink" x="0px" y="0px"
	 viewBox="0 0 1080 1080" style="enable-background:new 0 0 1080 1080;" xml:space="preserve">
<style type="text/css">
	.st0{fill-rule:evenodd;clip-rule:evenodd;fill:#00E8FF;}
	.st1{fill-rule:evenodd;clip-rule:evenodd;fill:none;stroke:url(#SVGID_1_);stroke-width:10;stroke-miterlimit:10;}
	.st2{fill-rule:evenodd;clip-rule:evenodd;fill:url(#SVGID_00000056427409996229207010000014329002583976635792_);}
	.st3{fill-rule:evenodd;clip-rule:evenodd;fill:#00E8FF;stroke:#00E8FF;stroke-miterlimit:10;}
	
		.st4{fill-rule:evenodd;clip-rule:evenodd;fill:none;stroke:url(#SVGID_00000034060481294974733150000010796761845348436888_);stroke-width:10;stroke-miterlimit:10;}
	.st5{fill-rule:evenodd;clip-rule:evenodd;fill:none;stroke:#00E8FF;stroke-width:6;stroke-miterlimit:10;}
	.st6{fill-rule:evenodd;clip-rule:evenodd;fill:none;stroke:#FFFFFF;stroke-width:10;stroke-miterlimit:10;}
	.st7{fill-rule:evenodd;clip-rule:evenodd;fill:#FFFFFF;}
	.st8{fill-rule:evenodd;clip-rule:evenodd;fill:#FFFFFF;stroke:#FFFFFF;stroke-miterlimit:10;}
</style>
<g>
	<linearGradient id="SVGID_1_" gradientUnits="userSpaceOnUse" x1="214.9575" y1="556.2478" x2="829.9034" y2="556.2478">
		<stop  offset="0.0223" style="stop-color:#1AA7EC"/>
		<stop  offset="0.4051" style="stop-color:#1D53B1"/>
		<stop  offset="0.5922" style="stop-color:#1E2F97"/>
		<stop  offset="0.6418" style="stop-color:#1D3399"/>
		<stop  offset="0.6945" style="stop-color:#1B40A1"/>
		<stop  offset="0.7486" style="stop-color:#1855AD"/>
		<stop  offset="0.8037" style="stop-color:#1373BD"/>
		<stop  offset="0.8595" style="stop-color:#0D99D3"/>
		<stop  offset="0.9152" style="stop-color:#05C7ED"/>
		<stop  offset="0.9497" style="stop-color:#00E8FF"/>
	</linearGradient>
	<path class="st1" d="M824.85,559.52 M824.81,559.82c0.66-9.96-2.18-12.2-4.87-17.47l0,0c-10.18-15.62-20.22-23.4-34.42-33.04
		l-86.16-55.02l-88.72-51.33l-9.96-5.75l-9.74,5.75l-105.09,60.62l-29.65,17.04l29.87,17.26l68.81,39.83l0,0l164.17,94.7
		L481.86,769.35c-19.91,11.51-38.72,17.92-61.29,21.24c-1.33,0.22-2.66,0.44-4.2,0.89c-18.36,4.87-29.21,23.67-24.34,42.26
		c4.87,18.36,23.9,29.21,42.26,24.34c7.52-1.99,13.72-6.42,18.14-11.95c14.16-18.14,29.43-31.2,49.12-42.48l256.87-148.46l7.08,3.98
		c6.19,3.76,11.28,8.63,14.38,14.16c3.32,5.53,5.09,12.39,5.09,19.69s-1.77,13.94-5.09,19.47l0,0c-3.32,5.75-8.19,10.62-14.38,14.16
		L443.36,912.72c-19.91,11.51-38.72,17.92-61.29,21.24c-1.33,0.22-2.66,0.44-4.2,0.88c-18.36,4.87-29.21,23.9-24.34,42.26
		s23.9,29.21,42.26,24.34c7.52-1.99,13.72-6.42,18.14-11.95c14.16-18.14,29.43-31.2,49.12-42.48L785.2,760.94
		c12.39-7.08,22.35-17.04,28.98-28.54v-0.22c6.86-11.73,10.4-25,10.4-39.16s-3.54-27.66-10.4-39.38
		c-6.64-11.73-16.59-21.46-28.76-28.76l-17.04-9.51l-9.73-5.75l0,0l-164.17-94.7l0,0l-59.07-34.29l65.27-37.61l59.3,34.07l0,0
		l124.56,71.91l32.28,17.43L824.81,559.82z M451.11,597.66l59.07,34.07l-65.49,37.83l-59.07-34.07l0,0L275.27,576.4
		c-22.57-13.72-37.46-13.34-47.78-48.86c-2.04,3.15-4.23,7.3-6.79,20.28l0,0l0,0c-0.99,11.71-1.58,13.51,2.18,23.02l0,0
		c5.75,15.49,19.37,27.48,34.41,36.33l88.72,51.11l88.72,51.33l9.96,5.75l9.96-5.75l104.87-60.62l29.65-17.04l-29.65-17.26
		l-69.03-39.83l0,0l-164.17-94.7l237.4-136.95c19.69-11.51,38.5-17.92,61.29-21.24c1.33-0.22,2.65-0.44,3.98-0.88
		c18.36-4.87,29.43-23.9,24.34-42.26c-4.87-18.36-23.67-29.21-42.26-24.34c-7.52,1.99-13.72,6.19-18.14,11.95
		c-14.16,17.92-29.21,31.2-49.12,42.48L286.94,457.39l-6.86-3.98c-6.42-3.76-11.28-8.63-14.6-14.16c-3.1-5.75-4.87-12.39-4.87-19.69
		s1.77-13.94,4.87-19.47l0,0c3.32-5.75,8.19-10.62,14.38-14.16l322.36-186.07c19.69-11.5,38.5-17.92,61.29-21.24
		c1.33-0.22,2.65-0.44,3.98-0.89c18.36-4.87,29.43-23.9,24.34-42.26c-4.87-18.36-23.67-29.43-42.26-24.34
		c-7.52,1.99-13.72,6.2-18.14,11.95c-14.16,17.92-29.21,30.98-49.12,42.48L260.17,351.63c-12.39,7.08-22.13,17.04-28.98,28.54l0,0
		c-6.64,11.73-10.4,25.22-10.4,39.38c0,14.16,3.76,27.66,10.4,39.38c6.86,11.73,16.59,21.46,28.98,28.54l16.82,9.74l9.96,5.75l0,0
		L451.11,597.66L451.11,597.66z"/>
	
		<linearGradient id="SVGID_00000035516027558025941600000003001137645264444854_" gradientUnits="userSpaceOnUse" x1="219.9575" y1="556.2478" x2="827.6884" y2="556.2478">
		<stop  offset="0.0223" style="stop-color:#00ABFF"/>
		<stop  offset="0.0871" style="stop-color:#0595ED"/>
		<stop  offset="0.2154" style="stop-color:#0E71CE"/>
		<stop  offset="0.3441" style="stop-color:#1554B6"/>
		<stop  offset="0.4717" style="stop-color:#1A3FA5"/>
		<stop  offset="0.5979" style="stop-color:#1D339A"/>
		<stop  offset="0.7207" style="stop-color:#1E2F97"/>
		<stop  offset="0.7525" style="stop-color:#1D3399"/>
		<stop  offset="0.7862" style="stop-color:#1B40A1"/>
		<stop  offset="0.8209" style="stop-color:#1855AD"/>
		<stop  offset="0.8562" style="stop-color:#1373BD"/>
		<stop  offset="0.8919" style="stop-color:#0D99D3"/>
		<stop  offset="0.9276" style="stop-color:#05C7ED"/>
		<stop  offset="0.9497" style="stop-color:#00E8FF"/>
	</linearGradient>
	<path style="fill-rule:evenodd;clip-rule:evenodd;fill:url(#SVGID_00000035516027558025941600000003001137645264444854_);" d="
		M824.81,559.82c0.66-9.96-2.18-12.2-4.87-17.47l0,0c-10.18-15.62-20.22-23.4-34.42-33.04l-86.16-55.02l-88.72-51.33l-9.96-5.75
		l-9.74,5.75l-105.09,60.62l-29.65,17.04l29.87,17.26l68.81,39.83l0,0l164.17,94.7L481.86,769.35
		c-19.91,11.51-38.72,17.92-61.29,21.24c-1.33,0.22-2.66,0.44-4.2,0.89c-18.36,4.87-29.21,23.67-24.34,42.26
		c4.87,18.36,23.9,29.21,42.26,24.34c7.52-1.99,13.72-6.42,18.14-11.95c14.16-18.14,29.43-31.2,49.12-42.48l256.87-148.46l7.08,3.98
		c6.19,3.76,11.28,8.63,14.38,14.16c3.32,5.53,5.09,12.39,5.09,19.69s-1.77,13.94-5.09,19.47l0,0c-3.32,5.75-8.19,10.62-14.38,14.16
		L443.36,912.72c-19.91,11.51-38.72,17.92-61.29,21.24c-1.33,0.22-2.66,0.44-4.2,0.88c-18.36,4.87-29.21,23.9-24.34,42.26
		s23.9,29.21,42.26,24.34c7.52-1.99,13.72-6.42,18.14-11.95c14.16-18.14,29.43-31.2,49.12-42.48L785.2,760.94
		c12.39-7.08,22.35-17.04,28.98-28.54v-0.22c6.86-11.73,10.4-25,10.4-39.16s-3.54-27.66-10.4-39.38
		c-6.64-11.73-16.59-21.46-28.76-28.76l-17.04-9.51l-9.73-5.75l0,0l-164.17-94.7l0,0l-59.07-34.29l65.27-37.61l59.3,34.07l0,0
		l124.56,71.91c19,11.36,40.15,16.85,40.32,34.23c7.02-10.24-1.37-14.28,0-23.69 M451.11,597.66l59.07,34.07l-65.49,37.83
		l-59.07-34.07l0,0L275.27,576.4c-22.57-13.72-45.84-13.69-49.27-50.09c-1.9,4.24-2.74,8.53-5.3,21.51l0,0l0,0
		c-0.99,11.71-1.58,13.51,2.18,23.02l0,0c5.75,15.49,19.37,27.48,34.41,36.33l88.72,51.11l88.72,51.33l9.96,5.75l9.96-5.75
		l104.87-60.62l29.65-17.04l-29.65-17.26l-69.03-39.83l0,0l-164.17-94.7l237.4-136.95c19.69-11.51,38.5-17.92,61.29-21.24
		c1.33-0.22,2.65-0.44,3.98-0.88c18.36-4.87,29.43-23.9,24.34-42.26c-4.87-18.36-23.67-29.21-42.26-24.34
		c-7.52,1.99-13.72,6.19-18.14,11.95c-14.16,17.92-29.21,31.2-49.12,42.48L286.94,457.39l-6.86-3.98
		c-6.42-3.76-11.28-8.63-14.6-14.16c-3.1-5.75-4.87-12.39-4.87-19.69s1.77-13.94,4.87-19.47l0,0c3.32-5.75,8.19-10.62,14.38-14.16
		l322.36-186.07c19.69-11.5,38.5-17.92,61.29-21.24c1.33-0.22,2.65-0.44,3.98-0.89c18.36-4.87,29.43-23.9,24.34-42.26
		c-4.87-18.36-23.67-29.43-42.26-24.34c-7.52,1.99-13.72,6.2-18.14,11.95c-14.16,17.92-29.21,30.98-49.12,42.48L260.17,351.63
		c-12.39,7.08-22.13,17.04-28.98,28.54l0,0c-6.64,11.73-10.4,25.22-10.4,39.38c0,14.16,3.76,27.66,10.4,39.38
		c6.86,11.73,16.59,21.46,28.98,28.54l16.82,9.74l9.96,5.75l0,0L451.11,597.66L451.11,597.66z M417.48,835.06
		c5.53,4.42,13.72,3.54,18.14-2.21c4.65-5.75,3.54-13.94-1.99-18.36c-5.75-4.42-13.94-3.54-18.36,2.21
		C410.84,822.45,411.72,830.64,417.48,835.06z M378.76,978.43c5.75,4.43,13.94,3.32,18.36-2.21c4.42-5.75,3.54-13.94-2.21-18.36
		c-5.53-4.43-13.72-3.54-18.14,2.21C372.12,965.6,373.23,973.79,378.76,978.43z M628.11,277.51c-5.75-4.42-13.94-3.54-18.36,2.21
		c-4.43,5.53-3.54,13.94,2.21,18.36c5.75,4.43,13.94,3.32,18.36-2.21C634.75,290.12,633.86,281.93,628.11,277.51z M666.61,134.14
		c-5.53-4.43-13.94-3.54-18.36,2.21c-4.43,5.75-3.54,13.94,2.21,18.36c5.75,4.42,13.94,3.54,18.36-2.21
		C673.24,146.75,672.36,138.56,666.61,134.14z"/>
	<path class="st3" d="M803.69,565.78c0,0,25.53,25.47,27.11,41.75c0,0,12.52-26.39,8.35-45.45c-4.17-19.05-24.5-35.88-24.5-35.88
		l1.28,36.81L803.69,565.78z"/>
</g>
</svg>
